<svg xmlns="http://www.w3.org/2000/svg" viewBox="0 0 33.18 33.16"><defs><style>.cls-1{fill:#fff;}</style></defs><title>Asset 4</title><g id="Layer_2" data-name="Layer 2"><g id="Layer_1-2" data-name="Layer 1"><path class="cls-1" d="M32.93,13.76A16.56,16.56,0,0,0,20.93.59c-1-.26-2-.36-3.05-.54l-.25,0H15.56l-.25.05c-.75.11-1.5.18-2.24.34a16.58,16.58,0,1,0,19.86,19c.1-.6.17-1.2.25-1.79V15.54C33.1,15,33,14.35,32.93,13.76ZM16.59,32.06A15.48,15.48,0,1,1,32.07,16.6,15.52,15.52,0,0,1,16.59,32.06Z"/><path class="cls-1" d="M21.68,16c-2.46-1.58-4.92-3.15-7.37-4.74a.69.69,0,0,0-.75-.12c-.27.15-.28.41-.28.68,0,3.18,0,6.37,0,9.55a2.26,2.26,0,0,0,0,.26.53.53,0,0,0,.55.48c.35,0,.55-.25.55-.69V12.62l6.16,4c-1.56,1-3.06,2-4.55,2.93a3,3,0,0,0-.3.19.55.55,0,0,0-.13.73.56.56,0,0,0,.71.2,2.07,2.07,0,0,0,.25-.15l5.14-3.31C22.29,16.78,22.29,16.39,21.68,16Z"/></g></g></svg>