<svg xmlns="http://www.w3.org/2000/svg" xmlns:xlink="http://www.w3.org/1999/xlink" viewBox="0 0 159.73 100.46"><defs><style>.cls-1{fill:url(#linear-gradient);}.cls-2,.cls-3{fill:none;stroke-miterlimit:10;}.cls-2{stroke:#373a3e;}.cls-3{stroke:#fff;}</style><linearGradient id="linear-gradient" x1="0.11" y1="70.87" x2="159.48" y2="70.87" gradientUnits="userSpaceOnUse"><stop offset="0" stop-color="#03ab8e"/><stop offset="1" stop-color="#2a71b9"/></linearGradient></defs><title>icon2Asset 4@1x</title><g id="Layer_2" data-name="Layer 2"><g id="Layer_1-2" data-name="Layer 1"><polygon class="cls-1" points="70.79 41.28 0.11 82.09 84.93 100.46 159.47 57.42 70.79 41.28"/><polyline class="cls-2" points="0.11 78.64 84.93 97.01 159.47 53.97"/><line class="cls-3" x1="103.66" y1="6.87" x2="103.66" y2="57.92"/><line class="cls-3" x1="112.02" y1="2.14" x2="112.02" y2="53.15"/><line class="cls-3" x1="94.35" y1="4.87" x2="94.35" y2="55.88"/><polygon class="cls-3" points="102.25 0.53 94.93 4.75 103.72 6.66 111.45 2.2 102.25 0.53"/><polyline class="cls-3" points="93.99 55.81 103.76 57.92 112.32 52.98"/><line class="cls-3" x1="80.4" y1="35.68" x2="80.4" y2="72.07"/><line class="cls-3" x1="88.76" y1="30.95" x2="88.76" y2="67.3"/><line class="cls-3" x1="71.09" y1="33.67" x2="71.09" y2="70.12"/><polygon class="cls-3" points="78.97 29.27 71.5 33.58 80.47 35.53 88.34 30.98 78.97 29.27"/><polyline class="cls-3" points="70.91 69.81 80.4 72.07 88.96 67.18"/><line class="cls-3" x1="57.14" y1="63.8" x2="57.14" y2="87.44"/><line class="cls-3" x1="65.49" y1="59.07" x2="65.49" y2="82.67"/><line class="cls-3" x1="47.83" y1="61.79" x2="47.83" y2="85.49"/><polygon class="cls-3" points="55.71 57.4 48.26 61.7 57.2 63.63 65.06 59.1 55.71 57.4"/><polyline class="cls-3" points="47.83 85.49 57.23 87.44 65.49 82.67"/></g></g></svg>