<svg xmlns="http://www.w3.org/2000/svg" viewBox="0 0 366.17 37.41"><defs><style>.cls-1{fill:#74be44;}.cls-2{fill:#fff;}</style></defs><title>Group 133</title><g id="Layer_2" data-name="Layer 2"><g id="Layer_1-2" data-name="Layer 1"><g id="Group_133" data-name="Group 133"><g id="Group_129" data-name="Group 129"><path id="Path_74" data-name="Path 74" class="cls-1" d="M30,25a1,1,0,0,1-.55.89l-7.74,4.42V13.21l-15-8.62L14.37.17a1,1,0,0,1,1.1,0L29.84,8.46C30,8.46,30,25,30,25Zm-11.6-9.94L8.07,9.23A1,1,0,0,0,7,9.23l-7,4,10.83,6.3V32l7-4a1.16,1.16,0,0,0,.56-1ZM0,25.7,7.52,30V21.28Z"/><path id="Path_75" data-name="Path 75" class="cls-2" d="M46.42,8.46H38.24v22.1h3.65V21.83h4.64c5,0,7.63-2.43,7.63-6.85,0-2-.78-6.64-7.74-6.52m4.09,6.63c0,2.43-1.33,3.42-4.42,3.42H42V11.66h4.64c2.54,0,3.87,1.11,3.87,3.43M65,14.42l.22.11-.66,3.32-.45-.11a3.17,3.17,0,0,0-1.1-.22c-3.32,0-3.65,2.65-3.65,6v7.07H56V14.31h3.2v1.88A4.45,4.45,0,0,1,62.45,14a7.11,7.11,0,0,1,2.54.44M73.17,14a7.07,7.07,0,0,0-6.08,2.87,10.19,10.19,0,0,0-1.66,5.64c0,5.2,3.09,8.4,7.74,8.4,5.74,0,7.73-4.64,7.73-8.62A9.25,9.25,0,0,0,79,16.41,7.9,7.9,0,0,0,73.17,14m0,13.93c-2.66,0-4.2-2.1-4.2-5.42S70.62,17,73.17,17s4.31,2.1,4.31,5.41-1.66,5.53-4.31,5.53m35.92-13.49.22.11-.67,3.32-.33-.11a3.17,3.17,0,0,0-1.1-.22c-3.32,0-3.65,2.65-3.65,6v7h-3.32V14.31h3.21v1.88A4.45,4.45,0,0,1,106.66,14a6.12,6.12,0,0,1,2.43.44m12,10.83-.11.23a3.68,3.68,0,0,1-3.64,2.43c-2.55,0-4.2-1.66-4.31-4.42h11.49l.11-.34a5.32,5.32,0,0,0,.11-1.32V21.5c-.22-4.53-3.09-7.63-7.4-7.63a7.14,7.14,0,0,0-5.86,2.76,9.44,9.44,0,0,0-1.77,5.64c0,5.08,3.09,8.4,7.74,8.4,3.64,0,6.08-1.77,7-5.19l.11-.34Zm-7.84-4.64a3.86,3.86,0,0,1,4-3.65h0a3.66,3.66,0,0,1,3.86,3.44v.2Zm-19.12-5A5.79,5.79,0,0,0,89.86,14c-4.87,0-7.19,4.31-7.19,8.4s2.21,8.29,7.19,8.29A5.93,5.93,0,0,0,94.06,29,7.1,7.1,0,0,1,94,30.67c-.23,2.65-1.44,3.87-4.09,3.87-1.44,0-3.1-.44-3.32-1.88l-.11-.33H83.11l.11.44c.34,2.87,2.88,4.64,6.64,4.64,3.2,0,5.52-1.21,6.74-3.53A10.54,10.54,0,0,0,97.37,29V14.31h-3.2ZM90.08,27.69c-1.22,0-3.87-.56-3.87-5.42,0-3.2,1.55-5.19,4-5.19,1.88,0,3.87,1.32,3.87,5.19.11,3.32-1.44,5.42-4,5.42m50.06-2c0,2.65-2.1,5.19-7,5.19-4.2,0-6.74-1.88-7.07-5.19l-.11-.33h3.31l.11.22c.33,2,2.32,2.43,3.87,2.43s3.43-.55,3.43-2.1c0-.78-.44-1.33-1.44-1.66-.55-.22-1.33-.33-2.1-.66a25.88,25.88,0,0,1-3.43-1.11c-2.1-.77-3.2-2.21-3.2-4,0-3.31,3.2-4.75,6.3-4.75,4.2,0,6.41,1.66,6.74,4.86V19h-3.2l-.11-.22c-.34-1.88-2.21-2.21-3.32-2.21-.88,0-3.09.22-3.09,1.77,0,.66.66,1.22,1.87,1.66.34.11.89.22,1.55.44a30.6,30.6,0,0,1,3.76,1.11,4.19,4.19,0,0,1,3.09,4.2m15.48,0c0,2.65-2.1,5.19-7,5.19-4.2,0-6.74-1.88-7.07-5.19l-.11-.33h3.32l.11.22c.33,2,2.32,2.43,3.86,2.43s3.43-.55,3.43-2.1c0-.78-.44-1.33-1.44-1.66-.55-.22-1.32-.33-2.1-.66a25.74,25.74,0,0,1-3.42-1.11c-2.1-.77-3.21-2.21-3.21-4,0-3.31,3.21-4.75,6.3-4.75,4.2,0,6.41,1.66,6.74,4.86V19h-3.2l-.11-.22c-.33-1.88-2.21-2.21-3.32-2.21-.88,0-3.09.22-3.09,1.77,0,.66.66,1.22,1.88,1.66.33.11.88.22,1.54.44a30.6,30.6,0,0,1,3.76,1.11,4.21,4.21,0,0,1,3.1,4.2"/><path id="Path_76" data-name="Path 76" class="cls-2" d="M174.3,30.78c-5.53,0-9.62-4.53-9.62-11.16s4.09-11.16,9.62-11.16,9.61,4.53,9.61,11.16S179.82,30.78,174.3,30.78Zm0-20.67c-4.65,0-7.74,3.87-7.74,9.51s3.09,9.5,7.74,9.5,7.73-3.87,7.73-9.5S178.94,10.11,174.3,10.11Z"/><path id="Path_77" data-name="Path 77" class="cls-2" d="M188.44,36.53h-1.77V14.75h1.77v2.33a5.81,5.81,0,0,1,4.87-2.66c4.64,0,6.85,3.87,6.85,8.18s-2.21,8.18-6.85,8.18a6.41,6.41,0,0,1-4.87-2.65Zm0-10.39a5.37,5.37,0,0,0,4.76,3.09c3.31,0,5.3-2.76,5.3-6.52s-1.88-6.63-5.3-6.63a5.53,5.53,0,0,0-4.76,3.1Z"/><path id="Path_78" data-name="Path 78" class="cls-2" d="M209.55,29.23A5.87,5.87,0,0,0,214,27.69v1.76a6.77,6.77,0,0,1-4.64,1.33c-4.42,0-7.29-3.09-7.29-8s2.65-8.29,6.85-8.29,6.19,3.1,6.19,7.74v.66H203.81C203.81,27,206.24,29.23,209.55,29.23Zm-5.63-7.95h9.5C213.31,18.51,212,16,208.89,16,206.24,16.08,204.25,18,203.92,21.28Z"/><path id="Path_79" data-name="Path 79" class="cls-2" d="M217.62,14.75h1.77v2.44a6.25,6.25,0,0,1,5.08-2.88c3.65,0,5.42,2.32,5.42,5.64V30.34h-1.77V20.17c0-2.43-1.22-4.2-4.09-4.2a5.39,5.39,0,0,0-4.75,3.43V30.34h-1.77V14.75Z"/><path id="Path_80" data-name="Path 80" class="cls-2" d="M247.13,8.79v1.65H235.42v8H246v1.66H235.42v8.73h11.71v1.66H233.65V8.79Z"/><path id="Path_81" data-name="Path 81" class="cls-2" d="M260.17,28.13a5.77,5.77,0,0,1-4.86,2.65c-4.64,0-6.85-3.87-6.85-8.18s2.21-8.18,6.85-8.18a6.38,6.38,0,0,1,4.86,2.66V7.46h1.77v23h-1.77Zm0-8.95a5.32,5.32,0,0,0-4.75-3.1c-3.32,0-5.19,2.76-5.19,6.63s1.87,6.52,5.19,6.52a5.39,5.39,0,0,0,4.75-3.09Z"/><path id="Path_82" data-name="Path 82" class="cls-2" d="M276.2,27.91a6.08,6.08,0,0,1-4.86,2.65c-4.65,0-6.75-3.76-6.75-8s2.21-8,6.75-8a6,6,0,0,1,4.86,2.66V15H278V29.57c0,5.19-3.43,7.4-7.19,7.4a7.63,7.63,0,0,1-4.86-1.44v-2a7.22,7.22,0,0,0,4.86,1.88c3.1,0,5.42-1.88,5.42-5.74Zm0-8.73a5.59,5.59,0,0,0-4.64-3.1c-3.21,0-5.2,2.65-5.2,6.41s1.88,6.41,5.2,6.41a5.36,5.36,0,0,0,4.64-3.09Z"/><path id="Path_83" data-name="Path 83" class="cls-2" d="M288.14,29.23a5.9,5.9,0,0,0,4.42-1.54v1.76a6.81,6.81,0,0,1-4.65,1.33c-4.42,0-7.29-3.09-7.29-8s2.65-8.29,6.85-8.29,6.19,3.1,6.19,7.74v.66H282.39C282.39,27,284.93,29.23,288.14,29.23Zm-5.64-7.95H292c-.11-2.77-1.43-5.31-4.53-5.31C284.93,16.08,282.94,18,282.5,21.28Z"/><path id="Path_84" data-name="Path 84" class="cls-2" d="M296.31,16A2.27,2.27,0,0,1,294,13.76v-.11a2.21,2.21,0,0,1,2.08-2.32h.24a2.26,2.26,0,0,1,2.32,2.21.21.21,0,0,1,0,.11h0A2.49,2.49,0,0,1,296.31,16h0m0-4.2a1.94,1.94,0,0,0-.18,3.87h.07a1.89,1.89,0,0,0,2-1.78v-.21a1.93,1.93,0,0,0-1.88-1.88h0M296,14.09v.78h-.66V12.43h1.1a.73.73,0,0,1,.87.56.78.78,0,0,1,0,.22v.11a.93.93,0,0,1-.44.77l.55.89h-.77l-.45-.78Zm.33-1H296v.55h.33c.22,0,.34-.11.34-.22a.24.24,0,0,0-.1-.33.25.25,0,0,0-.24,0h0"/><path id="Path_85" data-name="Path 85" class="cls-2" d="M158.27,16A2.27,2.27,0,0,1,156,13.76v-.11A2.2,2.2,0,0,1,158,11.33h.24a2.27,2.27,0,0,1,2.32,2.21v.11h0A2.33,2.33,0,0,1,158.27,16c.11.11,0,.11,0,0m0-4.2a1.94,1.94,0,0,0-.11,3.87,1.89,1.89,0,0,0,2-1.78v-.21a1.87,1.87,0,0,0-1.85-1.88h0m-.22,2.32v.78h-.66V12.43h1.1a.74.74,0,0,1,.87.56.78.78,0,0,1,0,.22v.11c.11.33-.23.66-.45.77l.56.89h-.78l-.44-.78Zm.44-1.1h-.44v.55h.33c.22,0,.33-.11.33-.22s-.11-.33-.22-.33h0"/></g><g id="Group_132" data-name="Group 132"><g id="Group_130" data-name="Group 130"><path id="Path_86" data-name="Path 86" class="cls-2" d="M305,21.91v8.81h-1.58V10.39h7.23c4.07,0,6.55,2,6.55,5.88s-2.71,5.64-6.55,5.64ZM310.38,12H305v8.35h5.42c3.16,0,5-1.58,5-4.29s-1.8-4.07-5-4.07Z"/><path id="Path_87" data-name="Path 87" class="cls-2" d="M327.32,17.62A2.83,2.83,0,0,0,326,17.4a4.3,4.3,0,0,0-3.84,3.16V30.73h-1.81V16h1.58V18.3A5,5,0,0,1,326,15.81a2.43,2.43,0,0,1,1.35.23v1.58Z"/><path id="Path_88" data-name="Path 88" class="cls-2" d="M335.45,31c-3.84,0-6.55-3.16-6.55-7.68s2.71-7.68,6.55-7.68S342,18.75,342,23.27C342,28,339.29,31,335.45,31Zm0-13.78c-2.93,0-4.74,2.49-4.74,6.1s1.81,6.1,4.74,6.1,5-2.49,5-6.1-2.27-6.1-5-6.1Z"/><path id="Path_89" data-name="Path 89" class="cls-2" d="M356.46,29.14v1.59H343.81V30.5l6.55-7.67c2.26-2.49,4.06-4.53,4.06-7.25,0-2.48-1.58-4.06-4.29-4.06a9.5,9.5,0,0,0-5.87,2.71V12.65a8.31,8.31,0,0,1,5.87-2.48c3.62,0,5.88,2.26,5.88,5.64,0,3.17-2,5.2-4.3,8.14L347,29.36l9.49-.22Z"/></g><g id="Group_131" data-name="Group 131"><path id="Path_90" data-name="Path 90" class="cls-2" d="M359.39,12.65h2.94v.68h-.9v2.48h-.91V13.33h-1.13Z"/><path id="Path_91" data-name="Path 91" class="cls-2" d="M364.36,15.14l-.9-1.13v1.8h-.9V12.65h.9l.9,1.36.91-1.36h.9V16h-.9V14Z"/></g></g></g></g></g></svg>