<svg xmlns="http://www.w3.org/2000/svg" viewBox="0 0 480.84 100.55"><defs><style>.cls-1{fill:#5ce500;}.cls-2{fill:#4b4e52;}.cls-3{fill:#7c878e;}</style></defs><title>Logo_OEAsset 1@1x</title><g id="Layer_2" data-name="Layer 2"><g id="Layer_1-2" data-name="Layer 1"><path class="cls-1" d="M48.25,40.44a2,2,0,0,1-.9,1.55L34.85,49.22V21.36L10.72,7.43,23.23.21a2,2,0,0,1,1.8,0L48.25,13.62Zm-18.77-16L13,14.91a2,2,0,0,0-1.8,0L0,21.36,17.42,31.42V51.54L28.58,45.1a2,2,0,0,0,.9-1.56ZM0,41.48l12.05,7V34.51Z"/><path class="cls-2" d="M74.81,13.62H61.66v35.6H67.5v-14h7.36c8,0,12.35-3.89,12.35-11,0-3.21-1.21-10.67-12.4-10.67m6.47,10.77c0,4-2.08,5.65-7.19,5.65H67.5V18.88h7.36c4.32,0,6.42,1.8,6.42,5.51m23.29-1.11.44.21-1,5.26-.68-.21a5.72,5.72,0,0,0-1.69-.26c-5.45,0-5.89,4.34-5.89,9.59V49.22h-5.4V23.08h5.07v3.15a7,7,0,0,1,5.24-3.48,7.35,7.35,0,0,1,3.91.54m13.28-.73c-4.25,0-7.66,1.62-9.85,4.68a15.71,15.71,0,0,0-2.64,9c0,8.26,4.9,13.6,12.49,13.6,9.22,0,12.49-7.43,12.49-13.79a14.62,14.62,0,0,0-3.05-9.35,11.8,11.8,0,0,0-9.44-4.1m0,22.42c-4.23,0-6.85-3.36-6.85-8.77s2.63-8.87,6.85-8.87,6.9,3.44,6.9,8.77S122.11,45,117.85,45m57.89-21.69.44.21-1,5.26-.68-.21a5.69,5.69,0,0,0-1.68-.26c-5.45,0-5.89,4.34-5.89,9.59V49.22h-5.4V23.08h5.07v3.15a7,7,0,0,1,5.24-3.48,7.35,7.35,0,0,1,3.9.54m19.4,17.56-.1.29A5.74,5.74,0,0,1,189.15,45c-4.09,0-6.72-2.71-7-7.12h18.48l.07-.51a15.79,15.79,0,0,0,.06-2.08c0-.17,0-.32,0-.47-.27-7.32-5-12.23-11.87-12.23a11.27,11.27,0,0,0-9.46,4.54,15.59,15.59,0,0,0-2.8,9.11c0,8.08,5,13.51,12.5,13.51,5.78,0,9.76-2.94,11.22-8.27l.17-.64Zm-12.78-7.63c.45-3.62,2.93-5.92,6.46-5.92a6.14,6.14,0,0,1,6.33,5.92Zm-30.66-7.93a9.24,9.24,0,0,0-6.95-2.72c-7.93,0-11.53,7-11.53,13.45,0,6.65,3.57,13.36,11.53,13.36a9.26,9.26,0,0,0,6.74-2.74c0,1.15,0,2.25-.08,2.72-.29,4.31-2.37,6.32-6.52,6.32-2.26,0-4.85-.8-5.35-3.05l-.11-.5H134.1l.09.71c.56,4.61,4.6,7.47,10.56,7.47,5.22,0,8.94-2,10.75-5.69a18.34,18.34,0,0,0,1.31-7.77V23.08h-5.11Zm-6.61,19.27c-1.89,0-6.28-.86-6.28-8.77,0-5.2,2.46-8.44,6.42-8.44,3.06,0,6.33,2.22,6.33,8.44,0,5.49-2.42,8.77-6.47,8.77m80.66-3.19c0,4.16-3.45,8.35-11.16,8.35-6.82,0-10.88-3-11.42-8.31l-.06-.55h5.32l.08.4c.65,3.22,3.72,3.9,6.18,3.9,2.7,0,5.58-.87,5.58-3.31,0-1.23-.8-2.11-2.39-2.6-.94-.28-2.09-.6-3.32-.95-2.1-.59-4.28-1.2-5.62-1.66-3.32-1.19-5.22-3.5-5.22-6.35,0-5.27,5.13-7.63,10.21-7.63,6.8,0,10.32,2.56,10.76,7.83l0,.54h-5.24l-.07-.41c-.53-3-3.54-3.48-5.29-3.48-1.51,0-5,.27-5,2.78,0,1.14,1,2,3,2.56.6.17,1.49.4,2.51.66,2.13.55,4.79,1.24,6.13,1.7,3.33,1.17,5,3.37,5,6.54m24.95,0c0,4.16-3.45,8.35-11.16,8.35-6.82,0-10.88-3-11.42-8.31l-.06-.55h5.32l.08.4c.65,3.22,3.72,3.9,6.18,3.9,2.7,0,5.58-.87,5.58-3.31,0-1.23-.8-2.11-2.39-2.6-.94-.28-2.1-.6-3.32-.95-2.1-.59-4.28-1.2-5.61-1.66-3.32-1.19-5.22-3.5-5.22-6.35,0-5.27,5.13-7.63,10.21-7.63,6.8,0,10.32,2.56,10.76,7.83l0,.54h-5.24l-.07-.41c-.53-3-3.54-3.48-5.29-3.48-1.51,0-5,.27-5,2.78,0,1.14,1,2,3,2.56.6.17,1.49.4,2.52.66,2.13.55,4.79,1.24,6.13,1.7,3.33,1.17,5,3.37,5,6.54"/><path class="cls-3" d="M280.75,49.7c-8.89,0-15.45-7.3-15.45-18s6.56-18,15.45-18,15.51,7.3,15.51,18S289.7,49.7,280.75,49.7Zm0-33.29c-7.41,0-12.48,6.27-12.48,15.28S273.34,47,280.75,47s12.54-6.27,12.54-15.28S288.22,16.41,280.75,16.41Z"/><path class="cls-3" d="M303.64,58.88h-2.85v-35h2.85v3.76a9.77,9.77,0,0,1,7.87-4.28c7.47,0,11.06,6.21,11.06,13.17S319,49.7,311.5,49.7a9.77,9.77,0,0,1-7.87-4.28Zm0-16.82c1.71,3.25,4.5,5,7.58,5,5.36,0,8.49-4.45,8.49-10.55S316.58,26,311.22,26c-3.08,0-5.87,1.77-7.58,5Z"/><path class="cls-3" d="M337.48,47.2a10.13,10.13,0,0,0,7.13-2.51v2.79a11.31,11.31,0,0,1-7.35,2.22c-7.07,0-11.8-5-11.8-12.94s4.22-13.4,10.95-13.4,10,5,10,12.37v1H328.25C328.25,43.6,332.24,47.2,337.48,47.2Zm-9.12-12.77H343.7c-.17-4.45-2.28-8.55-7.3-8.55C332.24,25.88,329,29,328.36,34.43Z"/><path class="cls-3" d="M350.53,23.88h2.85v4a9.86,9.86,0,0,1,8.09-4.56c5.76,0,8.78,3.71,8.78,9.06V49.19h-2.79V32.83c0-3.93-2-6.84-6.5-6.84a8.47,8.47,0,0,0-7.58,5.47V49.19h-2.85Z"/><path class="cls-3" d="M398.06,14.19v2.68H379.19V29.81h17.1v2.68h-17.1v14h18.87v2.68H376.34v-35Z"/><path class="cls-3" d="M419.07,45.43a9.77,9.77,0,0,1-7.87,4.28c-7.47,0-11.06-6.16-11.06-13.17s3.59-13.17,11.06-13.17a9.77,9.77,0,0,1,7.87,4.28V12.14h2.79V49.19h-2.79Zm0-14.42a8.66,8.66,0,0,0-7.64-5c-5.3,0-8.44,4.45-8.44,10.55s3.14,10.55,8.44,10.55a8.66,8.66,0,0,0,7.64-5Z"/><path class="cls-3" d="M444.92,45a9.73,9.73,0,0,1-7.81,4.16c-7.35,0-10.89-6.1-10.89-12.88s3.53-12.88,10.89-12.88a9.62,9.62,0,0,1,7.81,4.22V23.88h2.79V47.37c0,8.38-5.59,12-11.63,12A13.35,13.35,0,0,1,428.16,57V53.75a11.29,11.29,0,0,0,7.92,3.08c5,0,8.84-3,8.84-9.29Zm0-14.08A8.59,8.59,0,0,0,437.4,26c-5.24,0-8.32,4.28-8.32,10.26s3.08,10.32,8.32,10.32a8.69,8.69,0,0,0,7.52-4.9Z"/><path class="cls-3" d="M464.1,47.2a10.13,10.13,0,0,0,7.13-2.51v2.79a11.31,11.31,0,0,1-7.35,2.22c-7.07,0-11.8-5-11.8-12.94s4.22-13.4,10.95-13.4,10,5,10,12.37v1H454.87C454.87,43.6,458.86,47.2,464.1,47.2ZM455,34.43h15.33c-.17-4.45-2.28-8.55-7.3-8.55C458.86,25.88,455.66,29,455,34.43Z"/><path class="cls-3" d="M477.16,25.85a3.72,3.72,0,1,1,3.68-3.72,3.65,3.65,0,0,1-3.68,3.72m0-6.82a3.09,3.09,0,1,0,3,3.09,3,3,0,0,0-3-3.09m-.43,3.78v1.24h-1.1V20.16h1.83a1.3,1.3,0,0,1,1.44,1.36,1.14,1.14,0,0,1-.75,1.18l.89,1.36h-1.22l-.75-1.24Zm.61-1.75h-.61v.87h.61c.33,0,.51-.16.51-.43a.45.45,0,0,0-.51-.45"/><path class="cls-2" d="M255,25.85a3.72,3.72,0,1,1,3.68-3.72A3.65,3.65,0,0,1,255,25.85M255,19a3.09,3.09,0,1,0,3,3.09A3,3,0,0,0,255,19m-.43,3.78v1.24h-1.1V20.16h1.83a1.3,1.3,0,0,1,1.44,1.36A1.14,1.14,0,0,1,256,22.7l.89,1.36h-1.22l-.75-1.24Zm.61-1.75h-.61v.87h.61c.33,0,.51-.16.51-.43a.45.45,0,0,0-.51-.45"/><path class="cls-3" d="M281.82,87.13l-9.73-15.77V93H270V67.3h1.89l10,16.35L292,67.3h1.76V93h-2.1V71.36l-9.69,15.77Z"/><path class="cls-3" d="M309.76,80.13c0-2.52-1.76-4.15-4.61-4.15a9.5,9.5,0,0,0-5.41,1.63v-2A10.51,10.51,0,0,1,305.36,74c3.94,0,6.42,2.27,6.42,6V93h-2V91.28a7.2,7.2,0,0,1-5.16,2.05c-3.77,0-6.88-2.18-6.88-5.74s3.1-5.7,7-5.7a7.4,7.4,0,0,1,5.07,2Zm0,6.29c-.59-1.59-2.68-2.77-4.95-2.77-2.64,0-5.07,1.3-5.07,3.94s2.43,4,5.07,4c2.26,0,4.36-1.17,4.95-2.77Z"/><path class="cls-3" d="M316.8,74.43h2.1v3a7.25,7.25,0,0,1,6-3.36c4.23,0,6.46,2.73,6.46,6.67V93h-2.05V81c0-2.89-1.47-5-4.78-5a6.23,6.23,0,0,0-5.58,4V93h-2.1Z"/><path class="cls-3" d="M346.78,80.13c0-2.52-1.76-4.15-4.61-4.15a9.5,9.5,0,0,0-5.41,1.63v-2A10.51,10.51,0,0,1,342.38,74c3.94,0,6.42,2.27,6.42,6V93h-2V91.28a7.2,7.2,0,0,1-5.16,2.05c-3.77,0-6.88-2.18-6.88-5.74s3.1-5.7,7-5.7a7.4,7.4,0,0,1,5.07,2Zm0,6.29c-.59-1.59-2.68-2.77-4.95-2.77-2.64,0-5.07,1.3-5.07,3.94s2.43,4,5.07,4c2.26,0,4.36-1.17,4.95-2.77Z"/><path class="cls-3" d="M366.46,89.94A7.15,7.15,0,0,1,360.71,93c-5.41,0-8-4.49-8-9.48s2.6-9.48,8-9.48a7.07,7.07,0,0,1,5.74,3.1V74.43h2.05V91.7c0,6.16-4.11,8.85-8.55,8.85a9.82,9.82,0,0,1-5.83-1.76V96.4A8.31,8.31,0,0,0,360,98.66c3.65,0,6.5-2.18,6.5-6.84Zm0-10.36A6.31,6.31,0,0,0,360.92,76c-3.86,0-6.12,3.14-6.12,7.55s2.26,7.59,6.12,7.59a6.39,6.39,0,0,0,5.53-3.61Z"/><path class="cls-3" d="M381.46,91.57a7.45,7.45,0,0,0,5.24-1.84v2.05a8.33,8.33,0,0,1-5.41,1.63c-5.2,0-8.68-3.69-8.68-9.52s3.1-9.86,8.05-9.86,7.38,3.69,7.38,9.1v.76H374.67C374.67,88.93,377.6,91.57,381.46,91.57Zm-6.71-9.39H386c-.13-3.27-1.68-6.29-5.37-6.29C377.6,75.89,375.25,78.16,374.75,82.18Z"/><path class="cls-3" d="M410.4,74c3.77,0,5.66,2.68,5.66,6.42V93H414V80.76c0-2.85-1.26-4.78-4-4.78a5.4,5.4,0,0,0-4.95,3.9V93H403V80.76c0-2.85-1.26-4.78-4-4.78a5.4,5.4,0,0,0-4.95,3.9V93h-2.1V74.43H394v2.85A6,6,0,0,1,399.41,74a5.22,5.22,0,0,1,5.2,3.56A6.84,6.84,0,0,1,410.4,74Z"/><path class="cls-3" d="M428.88,91.57a7.45,7.45,0,0,0,5.24-1.84v2.05a8.33,8.33,0,0,1-5.41,1.63c-5.2,0-8.68-3.69-8.68-9.52s3.1-9.86,8.05-9.86,7.38,3.69,7.38,9.1v.76H422.09C422.09,88.93,425,91.57,428.88,91.57Zm-6.71-9.39h11.28c-.13-3.27-1.68-6.29-5.37-6.29C425,75.89,422.68,78.16,422.18,82.18Z"/><path class="cls-3" d="M439.37,74.43h2.1v3a7.25,7.25,0,0,1,6-3.36c4.23,0,6.46,2.73,6.46,6.67V93h-2.05V81c0-2.89-1.47-5-4.78-5a6.23,6.23,0,0,0-5.58,4V93h-2.1Z"/><path class="cls-3" d="M462.54,93h-2.1V76.23h-4v-1.8h4V69.65h2.1v4.78h4.4v1.8h-4.4Z"/></g></g></svg>