<svg xmlns="http://www.w3.org/2000/svg" viewBox="0 0 26.5 20.12"><defs><style>.cls-1{fill:#4f98d2;}</style></defs><title>Asset 10</title><g id="Layer_2" data-name="Layer 2"><g id="Layer_1-2" data-name="Layer 1"><path class="cls-1" d="M1.19,9H22.76l.08-.12a1.53,1.53,0,0,1-.3-.19Q19.2,5.34,15.87,2a3.57,3.57,0,0,1-.27-.28A1.06,1.06,0,0,1,17.12.26l.27.27L26,9.08c.73.73.74,1.2,0,1.92l-7.28,7.28c-.51.51-1,1-1.53,1.53A1,1,0,0,1,16,20a1,1,0,0,1-.64-.92,1.12,1.12,0,0,1,.4-.91l6.84-6.84.22-.24-.3,0H1.15A1.07,1.07,0,1,1,1.19,9Z"/></g></g></svg>