<svg xmlns="http://www.w3.org/2000/svg" viewBox="0 0 26.53 20.13"><defs><style>.cls-1{fill:#4f98d2;}</style></defs><title>Asset 9</title><g id="Layer_2" data-name="Layer 2"><g id="Layer_1-2" data-name="Layer 1"><path class="cls-1" d="M25.33,9H3.74l-.08-.12A1.53,1.53,0,0,0,4,8.68Q7.31,5.35,10.64,2a3.57,3.57,0,0,0,.27-.28A1.06,1.06,0,0,0,9.39.26L9.12.53.55,9.09c-.73.73-.74,1.2,0,1.92L7.82,18.3l1.53,1.53a1.06,1.06,0,0,0,1.8-.7,1.15,1.15,0,0,0-.41-.91L3.89,11.37l-.22-.24.3,0H25.38A1.05,1.05,0,0,0,26.52,10,1.06,1.06,0,0,0,25.33,9Z"/></g></g></svg>