<svg xmlns="http://www.w3.org/2000/svg" viewBox="0 0 34.75 34.13"><defs><style>.cls-1{fill:#fff;}</style></defs><title>Asset 2</title><g id="Layer_2" data-name="Layer 2"><g id="Layer_1-2" data-name="Layer 1"><path class="cls-1" d="M32.47,8.76h-7.1V2.28A2.29,2.29,0,0,0,23.09,0H2.28A2.28,2.28,0,0,0,0,2.28V23.09a2.29,2.29,0,0,0,2.28,2.28h7.1v6.48a2.29,2.29,0,0,0,2.28,2.28H32.47a2.28,2.28,0,0,0,2.28-2.28V11A2.28,2.28,0,0,0,32.47,8.76Zm-21.91,13c-.19-.15-.37-.31-.55-.47l-.63-.56v3.35H2.84a1.54,1.54,0,0,1-1.53-1.53V2.84A1.54,1.54,0,0,1,2.84,1.31H22.53a1.54,1.54,0,0,1,1.53,1.53V8.76H11.66A2.29,2.29,0,0,0,9.38,11v6.22l.1.11.57.59.64.63v-7a1.54,1.54,0,0,1,1.53-1.53H31.91a1.54,1.54,0,0,1,1.53,1.53V31.29a1.54,1.54,0,0,1-1.53,1.53H12.22a1.54,1.54,0,0,1-1.53-1.53V21.85Z"/><path class="cls-1" d="M25.13,26l-.35.26-4.15,2.94c-.48.34-.6.74-.35,1.12s.69.4,1.16.07c.94-.65,1.87-1.31,2.79-2,1.34-1,2.69-1.89,4-2.85a1,1,0,0,0-.13-1.74c-.19-.1-.4-.19-.6-.28l-7.06-3.21a.73.73,0,0,0-1.05.33.76.76,0,0,0,.48,1l5.36,2.44a3.65,3.65,0,0,1,.42.28c-.83.08-1.52.19-2.21.2A16.14,16.14,0,0,1,8.84,17.05a15.49,15.49,0,0,1-2.29-5.68c-.11-.58-.45-.84-.9-.74s-.63.46-.51,1c.09.42.19.84.3,1.25a17.89,17.89,0,0,0,15,13A24.08,24.08,0,0,0,25.13,26Z"/></g></g></svg>