<?xml version="1.0" encoding="utf-8"?>
<!-- Generator: Adobe Illustrator 22.0.1, SVG Export Plug-In . SVG Version: 6.00 Build 0)  -->
<svg version="1.1" id="Layer_1" xmlns="http://www.w3.org/2000/svg" xmlns:xlink="http://www.w3.org/1999/xlink" x="0px" y="0px"
	 viewBox="0 0 480.8 100.6" style="enable-background:new 0 0 480.8 100.6;" xml:space="preserve">
<style type="text/css">
	.st0{fill:#5CE500;}
	.st1{fill:#4B4E52;}
	.st2{fill:#7C878E;}
</style>
<title>Logo_OEAsset 1@1x</title>
<path class="st0" d="M48.2,40.4c0,0.6-0.4,1.2-0.9,1.5l-12.5,7.2V21.4l-24.1-14l12.5-7.2c0.6-0.3,1.2-0.3,1.8,0l23.2,13.4
	C48.2,13.6,48.2,40.4,48.2,40.4z M29.5,24.4L13,14.9c-0.6-0.3-1.2-0.3-1.8,0L0,21.4l17.4,10.1v20.1l11.2-6.4
	c0.5-0.3,0.9-0.9,0.9-1.6C29.5,43.6,29.5,24.4,29.5,24.4z M0,41.5l12.1,7v-14L0,41.5z"/>
<path class="st1" d="M74.8,13.6H61.7v35.6h5.8v-14h7.4c8,0,12.3-3.9,12.3-11C87.2,21,86,13.5,74.8,13.6 M81.3,24.3
	c0,4-2.1,5.6-7.2,5.6h-6.6v-11h7.4C79.2,18.9,81.3,20.7,81.3,24.3 M104.6,23.3l0.4,0.2l-1,5.3l-0.7-0.2c-0.5-0.2-1.1-0.3-1.7-0.3
	c-5.4,0-5.9,4.3-5.9,9.6v11.4h-5.4V23.1h5.1v3.1c1.1-1.9,3-3.2,5.2-3.5C102,22.6,103.3,22.8,104.6,23.3 M117.8,22.6
	c-4.2,0-7.7,1.6-9.8,4.7c-1.8,2.7-2.7,5.8-2.6,9c0,8.3,4.9,13.6,12.5,13.6c9.2,0,12.5-7.4,12.5-13.8c0.1-3.4-1-6.7-3.1-9.4
	C124.9,24,121.5,22.5,117.8,22.6 M117.8,45c-4.2,0-6.8-3.4-6.8-8.8s2.6-8.9,6.8-8.9s6.9,3.4,6.9,8.8S122.1,45,117.8,45 M175.7,23.3
	l0.4,0.2l-1,5.3l-0.7-0.2c-0.5-0.2-1.1-0.3-1.7-0.3c-5.4,0-5.9,4.3-5.9,9.6v11.3h-5.4V23.1h5.1v3.1c1.1-1.9,3-3.2,5.2-3.5
	C173.2,22.6,174.5,22.8,175.7,23.3 M195.1,40.8l-0.1,0.3c-0.9,2.5-3.3,4.1-5.9,3.9c-4.1,0-6.7-2.7-7-7.1h18.5l0.1-0.5
	c0.1-0.7,0.1-1.4,0.1-2.1c0-0.2,0-0.3,0-0.5c-0.3-7.3-5-12.2-11.9-12.2c-3.7-0.1-7.2,1.6-9.5,4.5c-1.9,2.7-2.8,5.9-2.8,9.1
	c0,8.1,5,13.5,12.5,13.5c5.8,0,9.8-2.9,11.2-8.3l0.2-0.6L195.1,40.8z M182.4,33.2c0.4-3.6,2.9-5.9,6.5-5.9c3.4-0.1,6.2,2.5,6.3,5.9
	H182.4z M151.7,25.3c-1.8-1.8-4.4-2.8-6.9-2.7c-7.9,0-11.5,7-11.5,13.5c0,6.7,3.6,13.4,11.5,13.4c2.5,0,5-0.9,6.7-2.7
	c0,1.2,0,2.2-0.1,2.7c-0.3,4.3-2.4,6.3-6.5,6.3c-2.3,0-4.9-0.8-5.4-3l-0.1-0.5h-5.3l0.1,0.7c0.6,4.6,4.6,7.5,10.6,7.5
	c5.2,0,8.9-2,10.8-5.7c1-2.5,1.4-5.1,1.3-7.8V23.1h-5.1L151.7,25.3z M145.1,44.6c-1.9,0-6.3-0.9-6.3-8.8c0-5.2,2.5-8.4,6.4-8.4
	c3.1,0,6.3,2.2,6.3,8.4C151.6,41.3,149.1,44.6,145.1,44.6 M225.8,41.4c0,4.2-3.4,8.4-11.2,8.4c-6.8,0-10.9-3-11.4-8.3l-0.1-0.5h5.3
	l0.1,0.4c0.6,3.2,3.7,3.9,6.2,3.9c2.7,0,5.6-0.9,5.6-3.3c0-1.2-0.8-2.1-2.4-2.6c-0.9-0.3-2.1-0.6-3.3-1c-2.1-0.6-4.3-1.2-5.6-1.7
	c-3.3-1.2-5.2-3.5-5.2-6.4c0-5.3,5.1-7.6,10.2-7.6c6.8,0,10.3,2.6,10.8,7.8V31h-5.2l-0.1-0.4c-0.5-3-3.5-3.5-5.3-3.5
	c-1.5,0-5,0.3-5,2.8c0,1.1,1,2,3,2.6c0.6,0.2,1.5,0.4,2.5,0.7c2.1,0.5,4.8,1.2,6.1,1.7C224.1,36,225.7,38.2,225.8,41.4 M250.7,41.4
	c0,4.2-3.4,8.4-11.2,8.4c-6.8,0-10.9-3-11.4-8.3L228,41h5.3l0.1,0.4c0.6,3.2,3.7,3.9,6.2,3.9c2.7,0,5.6-0.9,5.6-3.3
	c0-1.2-0.8-2.1-2.4-2.6c-0.9-0.3-2.1-0.6-3.3-1c-2.1-0.6-4.3-1.2-5.6-1.7c-3.3-1.2-5.2-3.5-5.2-6.4c0-5.3,5.1-7.6,10.2-7.6
	c6.8,0,10.3,2.6,10.8,7.8V31h-5.2l-0.1-0.4c-0.5-3-3.5-3.5-5.3-3.5c-1.5,0-5,0.3-5,2.8c0,1.1,1,2,3,2.6c0.6,0.2,1.5,0.4,2.5,0.7
	c2.1,0.5,4.8,1.2,6.1,1.7C249,36,250.7,38.2,250.7,41.4"/>
<path class="st2" d="M280.8,49.7c-8.9,0-15.5-7.3-15.5-18s6.6-18,15.5-18s15.5,7.3,15.5,18S289.7,49.7,280.8,49.7z M280.8,16.4
	c-7.4,0-12.5,6.3-12.5,15.3s5,15.3,12.5,15.3s12.5-6.3,12.5-15.3S288.2,16.4,280.8,16.4z"/>
<path class="st2" d="M303.6,58.9h-2.9v-35h2.9v3.8c1.8-2.6,4.7-4.2,7.9-4.3c7.5,0,11.1,6.2,11.1,13.2s-3.6,13.2-11.1,13.2
	c-3.2-0.1-6.1-1.7-7.9-4.3V58.9z M303.6,42.1c1.7,3.2,4.5,5,7.6,5c5.4,0,8.5-4.5,8.5-10.5S316.6,26,311.2,26c-3.1,0-5.9,1.8-7.6,5
	V42.1z"/>
<path class="st2" d="M337.5,47.2c2.6,0.1,5.2-0.8,7.1-2.5v2.8c-2.1,1.6-4.7,2.4-7.4,2.2c-7.1,0-11.8-5-11.8-12.9s4.2-13.4,11-13.4
	s10,5,10,12.4v1h-18.2C328.2,43.6,332.2,47.2,337.5,47.2z M328.4,34.4h15.3c-0.2-4.5-2.3-8.6-7.3-8.6C332.2,25.9,329,29,328.4,34.4
	L328.4,34.4z"/>
<path class="st2" d="M350.5,23.9h2.9v4c1.8-2.8,4.8-4.5,8.1-4.6c5.8,0,8.8,3.7,8.8,9.1v16.8h-2.8V32.8c0-3.9-2-6.8-6.5-6.8
	c-3.4,0.1-6.4,2.3-7.6,5.5v17.7h-2.9V23.9z"/>
<path class="st2" d="M398.1,14.2v2.7h-18.9v12.9h17.1v2.7h-17.1v14h18.9v2.7h-21.7v-35L398.1,14.2z"/>
<path class="st2" d="M419.1,45.4c-1.8,2.6-4.7,4.2-7.9,4.3c-7.5,0-11.1-6.2-11.1-13.2s3.6-13.2,11.1-13.2c3.2,0.1,6.1,1.7,7.9,4.3
	V12.1h2.8v37h-2.8V45.4z M419.1,31c-1.4-3-4.4-4.9-7.6-5c-5.3,0-8.4,4.4-8.4,10.6s3.1,10.5,8.4,10.5c3.3-0.1,6.3-2,7.6-5V31z"/>
<path class="st2" d="M444.9,45c-1.8,2.6-4.7,4.1-7.8,4.2c-7.4,0-10.9-6.1-10.9-12.9s3.5-12.9,10.9-12.9c3.1,0,6.1,1.6,7.8,4.2v-3.7
	h2.8v23.5c0,8.4-5.6,12-11.6,12c-2.8,0.1-5.6-0.8-7.9-2.4v-3.2c2.1,2,5,3.1,7.9,3.1c5,0,8.8-3,8.8-9.3L444.9,45L444.9,45z
	 M444.9,30.9c-1.4-2.9-4.3-4.8-7.5-4.9c-5.2,0-8.3,4.3-8.3,10.3s3.1,10.3,8.3,10.3c3.2-0.1,6.1-2,7.5-4.9V30.9z"/>
<path class="st2" d="M464.1,47.2c2.6,0.1,5.2-0.8,7.1-2.5v2.8c-2.1,1.6-4.7,2.4-7.4,2.2c-7.1,0-11.8-5-11.8-12.9s4.2-13.4,11-13.4
	s10,5,10,12.4v1h-18.2C454.9,43.6,458.9,47.2,464.1,47.2z M455,34.4h15.3c-0.2-4.5-2.3-8.6-7.3-8.6C458.9,25.9,455.7,29,455,34.4z"
	/>
<path class="st2" d="M477.2,25.8c-2.1,0-3.7-1.6-3.8-3.7s1.6-3.7,3.7-3.8c2.1,0,3.7,1.6,3.8,3.7l0,0c0,2-1.6,3.7-3.6,3.7
	C477.2,25.9,477.2,25.9,477.2,25.8 M477.2,19c-1.7,0-3.1,1.3-3.2,3c0,1.7,1.3,3.1,3,3.2s3.1-1.3,3.2-3v-0.1
	C480.2,20.5,478.9,19.1,477.2,19L477.2,19 M476.7,22.8V24h-1.1v-3.9h1.8c0.7-0.1,1.4,0.4,1.4,1.2c0,0.1,0,0.1,0,0.2
	c0,0.5-0.3,1-0.8,1.2l0.9,1.4h-1.2l-0.8-1.2L476.7,22.8z M477.3,21.1h-0.6V22h0.6c0.3,0,0.5-0.2,0.5-0.4
	C477.9,21.3,477.7,21,477.3,21.1C477.4,21,477.4,21,477.3,21.1"/>
<path class="st1" d="M255,25.8c-2.1,0-3.7-1.6-3.8-3.7s1.6-3.7,3.7-3.8c2.1,0,3.7,1.6,3.8,3.7l0,0C258.7,24,257.1,25.7,255,25.8
	C255.1,25.9,255,25.9,255,25.8 M255,19c-1.7,0-3.1,1.3-3.2,3c0,1.7,1.3,3.1,3,3.2s3.1-1.3,3.2-3v-0.1C258,20.4,256.7,19.1,255,19
	C255.1,19,255,19,255,19 M254.6,22.8V24h-1.1v-3.9h1.8c0.7-0.1,1.4,0.4,1.4,1.2c0,0.1,0,0.1,0,0.2c0.1,0.5-0.3,1-0.7,1.2l0.9,1.4
	h-1.2l-0.8-1.2L254.6,22.8z M255.2,21h-0.6v0.9h0.6c0.3,0,0.5-0.2,0.5-0.4C255.7,21.2,255.5,21,255.2,21L255.2,21"/>
<g>
	<path class="st2" d="M272.2,82v10.6h-2V68h8.7c4.8,0,8,2.4,8,7s-3.2,7-8,7H272.2z M278.8,69.9h-6.6v10.2h6.6c3.8,0,6-1.9,6-5.1
		S282.6,69.9,278.8,69.9z"/>
	<path class="st2" d="M299.1,76.7c-0.5-0.2-1-0.3-1.6-0.3c-2.2,0-3.9,1.6-4.7,3.8v12.4h-2V74.8h2v2.8c0.8-1.8,2.6-3.2,4.8-3.2
		c0.7,0,1.2,0.1,1.6,0.2L299.1,76.7L299.1,76.7z"/>
	<path class="st2" d="M308.9,92.9c-4.7,0-7.8-3.8-7.8-9.2c0-5.5,3.2-9.2,7.8-9.2c4.7,0,7.9,3.8,7.9,9.2
		C316.8,89.2,313.6,92.9,308.9,92.9z M308.9,76.2c-3.5,0-5.8,3-5.8,7.5s2.3,7.5,5.8,7.5c3.6,0,5.9-3,5.9-7.5S312.4,76.2,308.9,76.2z
		"/>
	<path class="st2" d="M334.5,90.7v1.9h-15.4v-0.2l7.9-9.3c2.6-3.1,4.8-5.4,4.8-8.7c0-2.9-1.8-4.8-5.2-4.8c-2.8,0-5.2,1.6-7,3.4v-2.2
		c1.6-1.7,4.2-3.1,7.1-3.1c4.5,0,7.1,2.6,7.1,6.7c0,3.7-2.4,6.4-5.3,9.8l-5.7,6.6h11.7V90.7z"/>
</g>
<g>
	<path class="st2" d="M338,70.7h3.5v0.9h-1.2v3.1h-1v-3.1H338V70.7z"/>
	<path class="st2" d="M344,73.8l-1-1.4v2.3h-1v-4h1l1.1,1.6l1.1-1.6h1v4h-1v-2.3L344,73.8L344,73.8z"/>
</g>
</svg>
