<svg xmlns="http://www.w3.org/2000/svg" xmlns:xlink="http://www.w3.org/1999/xlink" viewBox="0 0 35.63 41.34"><defs><style>.cls-1{fill:none;}.cls-2{clip-path:url(#clip-path);}.cls-3{fill:#cdcccc;}</style><clipPath id="clip-path" transform="translate(-4.29 -3.67)"><circle id="Ellipse_8" data-name="Ellipse 8" class="cls-1" cx="22.1" cy="22.1" r="22.1"/></clipPath></defs><title>Asset 13</title><g id="Layer_2" data-name="Layer 2"><g id="Layer_1-2" data-name="Layer 1"><g class="cls-2"><path class="cls-3" d="M39.91,45H4.3c-.06-1.79.15-12.74,1.76-13.8a36,36,0,0,1,4.45-2.51c1.68-.79,3.47-1.38,5.2-2.07a3.15,3.15,0,0,0,1.49-4.72A8,8,0,0,1,16,18.64c0-.18-.25-.33-.38-.49a2.65,2.65,0,0,1-.56-.72c-.27-.74-.44-1.51-.67-2.25s-.13-1,.34-1.34a33.8,33.8,0,0,1-.28-4.06A6.05,6.05,0,0,1,20.54,3.7a9.14,9.14,0,0,1,3.67.44,5.85,5.85,0,0,1,3.37,2.92.71.71,0,0,0,.34.38,2.25,2.25,0,0,1,1.61,2.28c0,1.18-.17,2.37-.27,3.56,0,.14-.05.28-.08.41a1.06,1.06,0,0,1,.68,1.42c-.19.8-.35,1.62-.62,2.4a2,2,0,0,1-.8.78,9.24,9.24,0,0,1-1.58,3.94c-.75,1.05-.25,3.91,1.43,4.47,2.15.71,4.25,1.6,6.33,2.52a25,25,0,0,1,3.22,1.84C39.54,32.15,40,43.06,39.91,45Z" transform="translate(-4.29 -3.67)"/></g></g></g></svg>