<svg xmlns="http://www.w3.org/2000/svg" viewBox="0 0 33.16 33.16"><defs><style>.cls-1{fill:#fff;}</style></defs><title>Asset 5</title><g id="Layer_2" data-name="Layer 2"><g id="Layer_1-2" data-name="Layer 1"><path class="cls-1" d="M31.93,13.73c-.79-.06-1.57-.15-2.35-.21a.37.37,0,0,1-.39-.33A12,12,0,0,0,27.88,10a.32.32,0,0,1,0-.45c.55-.64,1.08-1.29,1.61-1.94A1.07,1.07,0,0,0,29.45,6c-.75-.76-1.51-1.52-2.27-2.27a1.12,1.12,0,0,0-1.69-.09c-.64.53-1.28,1.06-1.91,1.6a.33.33,0,0,1-.45,0A11.74,11.74,0,0,0,20,4a.39.39,0,0,1-.35-.41c-.06-.8-.14-1.59-.21-2.39A1.12,1.12,0,0,0,18.17,0H15a1.14,1.14,0,0,0-1.3,1.22c-.06.8-.15,1.59-.21,2.39a.34.34,0,0,1-.29.35A12.1,12.1,0,0,0,10,5.29a.31.31,0,0,1-.42,0c-.65-.56-1.3-1.1-2-1.64A1.08,1.08,0,0,0,6,3.71Q4.84,4.85,3.7,6a1.06,1.06,0,0,0-.07,1.61c.53.65,1.06,1.3,1.61,1.94a.34.34,0,0,1,0,.48A11.93,11.93,0,0,0,4,13.2a.35.35,0,0,1-.36.32c-.76.06-1.52.16-2.29.2A1.33,1.33,0,0,0,0,14.57v4a1.33,1.33,0,0,0,1.31.85c.77,0,1.53.14,2.29.2A.34.34,0,0,1,4,20a12.07,12.07,0,0,0,1.31,3.15.35.35,0,0,1,0,.48c-.55.64-1.08,1.29-1.61,1.94a1.06,1.06,0,0,0,.07,1.61Q4.84,28.31,6,29.45a1.08,1.08,0,0,0,1.61.08c.67-.53,1.32-1.08,2-1.63a.31.31,0,0,1,.43,0,12,12,0,0,0,3.21,1.33.35.35,0,0,1,.29.36c.06.76.16,1.52.2,2.28a1.32,1.32,0,0,0,.85,1.32h4a1.35,1.35,0,0,0,.85-1.32c0-.76.14-1.52.2-2.28A.34.34,0,0,1,20,29.2a12.1,12.1,0,0,0,3.15-1.32.35.35,0,0,1,.48,0c.64.55,1.3,1.09,2,1.63a1.07,1.07,0,0,0,1.57-.07l2.36-2.35a1.07,1.07,0,0,0,.06-1.59c-.51-.63-1-1.26-1.55-1.87a.46.46,0,0,1-.07-.64A11.25,11.25,0,0,0,29.19,20a.37.37,0,0,1,.39-.33L32,19.42a1.11,1.11,0,0,0,1.14-1.22V15.06A1.15,1.15,0,0,0,31.93,13.73Zm.18,4.63-1.67.16-1.8.17a.26.26,0,0,0-.27.25,12,12,0,0,1-1.78,4.3.26.26,0,0,0,0,.39c.68.8,1.34,1.61,2,2.42l.18.23L26.27,28.8l-2.39-2c-.43-.36-.43-.36-.91-.06a11.64,11.64,0,0,1-4,1.6c-.21,0-.3.12-.32.34-.08,1-.19,2.07-.29,3.1q0,.14,0,.3H14.79l-.15-1.63c-.06-.6-.12-1.2-.17-1.8,0-.18-.07-.27-.26-.3A11.7,11.7,0,0,1,9.94,26.6a.3.3,0,0,0-.44,0c-.8.67-1.6,1.32-2.4,2l-.24.2L4.36,26.3a2.12,2.12,0,0,1,.15-.21c.66-.81,1.33-1.62,2-2.42a.32.32,0,0,0,0-.47A11.65,11.65,0,0,1,4.79,19a.28.28,0,0,0-.31-.27c-1-.09-2.07-.2-3.1-.3l-.33,0V14.79l3.67-.35c0-.13.07-.26.1-.4A11.87,11.87,0,0,1,6.54,10a.32.32,0,0,0,0-.47L4.37,6.9,6.9,4.37l1.22,1c.47.39.94.79,1.43,1.17a.37.37,0,0,0,.32,0,12.46,12.46,0,0,1,4.46-1.83l.11,0,.35-3.65h3.57c.08.77.15,1.53.22,2.29,0,.38.08.77.11,1.16a.26.26,0,0,0,.24.28,11.62,11.62,0,0,1,4.3,1.78.3.3,0,0,0,.42,0l2.39-2a2.67,2.67,0,0,0,.23-.18L28.8,6.89l-1.67,2c-.18.22-.37.42-.53.65a.43.43,0,0,0,0,.33,12,12,0,0,1,1.8,4.36c0,.18.14.21.29.23,1.06.09,2.11.2,3.16.3l.29,0Z"/><path class="cls-1" d="M16.59,8a8.55,8.55,0,1,0,8.54,8.56A8.56,8.56,0,0,0,16.59,8Zm0,16.06a7.51,7.51,0,1,1,7.54-7.46A7.52,7.52,0,0,1,16.55,24.09Z"/></g></g></svg>